HIERARCHY
ROOT Hips
{
  OFFSET -31.5692 30.0904 122.763
  CHANNELS 6 Xposition Yposition Zposition Zrotation Xrotation Yrotation
  JOINT LeftUpLeg
  {
    OFFSET 8.64259 1.95398 -2.38835
    CHANNELS 3 Zrotation Xrotation Yrotation
    JOINT LeftLeg
    {
      OFFSET 43.7702 0 0
      CHANNELS 3 Zrotation Xrotation Yrotation
      JOINT LeftFoot
      {
        OFFSET 40.6238 0 0
        CHANNELS 3 Zrotation Xrotation Yrotation
        JOINT LeftToeBase
        {
          OFFSET 12.7242 0 0
          CHANNELS 3 Zrotation Xrotation Yrotation
          End Site
          {
            OFFSET 0 0 0
          }
        }
      }
    }
  }
  JOINT RightUpLeg
  {
    OFFSET -8.2249 1.95398 -2.59336
    CHANNELS 3 Zrotation Xrotation Yrotation
    JOINT RightLeg
    {
      OFFSET 43.5653 0 0
      CHANNELS 3 Zrotation Xrotation Yrotation
      JOINT RightFoot
      {
        OFFSET 40.6238 0 0
        CHANNELS 3 Zrotation Xrotation Yrotation
        JOINT RightToeBase
        {
          OFFSET 12.7242 0 0
          CHANNELS 3 Zrotation Xrotation Yrotation
          End Site
          {
            OFFSET 0 0 0
          }
        }
      }
    }
  }
  JOINT Spine
  {
    OFFSET 0.165834 0.87714 6.61349
    CHANNELS 3 Zrotation Xrotation Yrotation
    JOINT Spine1
    {
      OFFSET 7.38963 1.71661e-005 0
      CHANNELS 3 Zrotation Xrotation Yrotation
      JOINT Spine2
      {
        OFFSET 11.9445 1.14441e-005 0
        CHANNELS 3 Zrotation Xrotation Yrotation
        JOINT Spine3
        {
          OFFSET 14.7254 4.19617e-005 0
          CHANNELS 3 Zrotation Xrotation Yrotation
          JOINT Spine4
          {
            OFFSET 10.9679 0 0
            CHANNELS 3 Zrotation Xrotation Yrotation
            JOINT RightShoulder
            {
              OFFSET 2.46616 -1.6653 3.69651
              CHANNELS 3 Zrotation Xrotation Yrotation
              JOINT RightArm
              {
                OFFSET 13.0012 0 0
                CHANNELS 3 Zrotation Xrotation Yrotation
                JOINT RightForeArm
                {
                  OFFSET 28.7848 1.62311e-005 0
                  CHANNELS 3 Zrotation Xrotation Yrotation
                  JOINT RightHand
                  {
                    OFFSET 26.5688 1.62095e-005 0
                    CHANNELS 3 Zrotation Xrotation Yrotation
                    End Site
                    {
                      OFFSET 0 0 0
                    }
                  }
                }
              }
            }
            JOINT LeftShoulder
            {
              OFFSET 2.38034 -1.29275 -3.7523
              CHANNELS 3 Zrotation Xrotation Yrotation
              JOINT LeftArm
              {
                OFFSET 16.3182 6.07031e-005 0
                CHANNELS 3 Zrotation Xrotation Yrotation
                JOINT LeftForeArm
                {
                  OFFSET 27.0901 0 0
                  CHANNELS 3 Zrotation Xrotation Yrotation
                  JOINT LeftHand
                  {
                    OFFSET 24.5451 1.51738e-005 0
                    CHANNELS 3 Zrotation Xrotation Yrotation
                    End Site
                    {
                      OFFSET 0 0 0
                    }
                  }
                }
              }
            }
            JOINT Neck
            {
              OFFSET 5.0226 -0.0266342 0
              CHANNELS 3 Zrotation Xrotation Yrotation
              JOINT Head
              {
                OFFSET 6.69364 2.86102e-005 0
                CHANNELS 3 Zrotation Xrotation Yrotation
                End Site
                {
                  OFFSET 0 0 0
                }
              }
            }
          }
        }
      }
    }
  }
}
MOTION
Frames:	13
Frame Time:	0.0416667
152.734 16.0411 124.896 -7.71341 -1.94984 -90.8068 -169.918 2.21944 95.1433 -25.0491 10.2132 -1.46114 59.2339 -1.21671 -1.92012 48.1632 1.77248 45.8513 167.632 -1.21447 83.1701 -25.9639 -17.4273 0.302371 70.8801 -6.68773 -0.163298 36.6546 -4.10731 4.16062 -0.232241 6.28762 -90.0314 14.2986 -0.475504 0.00340778 2.62781 -0.474885 0.0243106 -19.908 -0.454529 -0.139654 0.10464 -0.454537 -0.139667 95.7627 0.202993 -107.573 -15.1226 52.0649 -11.2284 -25.6235 -5.62294 -81.4339 -23.6358 1.85425 -17.7435 -84.3844 -11.9438 79.3147 -6.6476 -65.124 -44.1157 34.1893 26.1921 -59.3481 21.8909 -13.5811 -56.7922 44.8513 -0.166625 -8.35943 -20.1941 2.4366 12.8157 
152.654 15.2779 125.034 -9.74748 -4.04846 -89.3589 -169.233 0.924793 97.283 -26.3252 13.2421 -0.766959 60.227 -0.784358 -1.74079 48.1302 1.58615 46.5677 167.044 -5.85328 84.145 -22.6375 -15.8223 1.23427 69.0994 -5.88272 -1.04692 38.4151 -5.06111 6.57666 -0.480998 6.55056 -90.1763 13.7719 -1.03935 -0.215113 2.10138 -1.04783 -0.169143 -20.4365 -0.926654 -0.51754 -0.423813 -0.926669 -0.517551 96.201 2.49262 -107.789 -12.0233 53.3661 -10.8285 -39.134 -10.0003 -84.6627 -36.9412 5.04479 -26.3323 -84.1989 -11.5184 79.6319 -6.15217 -64.3794 -43.246 31.0584 24.7138 -58.5502 22.9995 -13.7387 -55.063 43.1372 3.12818 -0.875445 -13.9511 3.38647 0.372726 
152.652 15.4015 125.027 -9.41544 -3.86424 -89.5537 -169.356 1.24838 97.0283 -26.2184 12.8522 -0.837747 60.2169 -0.777452 -1.74115 47.8858 1.20592 47.0985 167.138 -5.17608 83.987 -23.052 -15.9756 1.15412 69.099 -5.82086 -0.898549 36.7896 -4.47094 6.93428 -0.414639 6.4923 -90.0717 13.8897 -0.856969 -0.029028 2.21903 -0.857404 0.00870024 -20.3182 -0.808621 -0.285271 -0.305555 -0.808631 -0.285273 95.6092 0.876454 -108.739 -14.7312 53.4341 -8.25368 -36.5435 -9.12754 -83.3199 -34.0557 5.06941 -27.3636 -84.0505 -8.32132 78.7915 -9.44131 -64.2756 -43.3931 32.4329 25.3057 -59.2433 23.3509 -13.5864 -53.9298 42.5058 1.82396 -4.345 -13.6334 3.61502 3.71014 
152.674 15.4048 125.064 -9.45748 -3.797 -89.7557 -169.473 1.07818 96.7669 -26.1219 12.4593 -0.831745 60.2447 -0.762663 -1.98687 47.8375 0.972809 47.9124 166.965 -5.02143 83.7024 -23.3055 -16.236 1.14698 69.238 -5.90584 -1.01233 38.1398 -4.97409 6.79118 -0.420352 6.48817 -89.9966 13.8983 -0.831653 0.11833 2.22761 -0.825639 0.154797 -20.3096 -0.828775 -0.137107 -0.297005 -0.828756 -0.137106 95.3523 0.192525 -109.123 -15.2463 53.4357 -7.86035 -36.6729 -9.05652 -83.4891 -34.3035 5.05152 -27.1461 -84.2054 -7.30202 77.9336 -9.60924 -64.9551 -42.4817 33.1088 25.8738 -60.3356 23.3288 -13.2702 -52.9967 41.2388 1.0634 -6.03971 -12.7652 3.64052 4.84934 
152.642 15.3923 125.064 -9.64873 -3.77802 -89.764 -169.402 0.974821 96.8037 -26.4011 12.6579 -0.850268 59.9719 -0.988799 -1.64313 47.5478 0.645567 47.9364 166.891 -5.38351 83.6665 -22.9611 -16.2769 1.13752 69.1549 -5.92008 -1.06014 38.2155 -4.98254 6.58002 -0.437758 6.52695 -89.9951 13.8208 -0.865571 0.124909 2.15011 -0.859234 0.162864 -20.3873 -0.863082 -0.141017 -0.374677 -0.863084 -0.141027 95.4396 1.14699 -109.635 -14.9771 53.7382 -6.95112 -37.804 -9.25847 -83.9931 -34.7464 4.81282 -26.2397 -84.2674 -7.67051 77.9134 -8.40693 -65.2937 -41.9234 33.0068 26.2515 -60.1511 23.6509 -13.4839 -53.0696 42.1582 1.27375 -5.90421 -13.6926 3.7803 4.85811 
152.665 15.4132 125.059 -9.55603 -3.70155 -89.7328 -169.436 1.16263 96.8191 -26.489 12.6515 -0.845144 60.1448 -0.886196 -1.73942 47.4606 0.0569643 50.0297 166.935 -5.29525 83.7237 -22.9164 -16.3606 1.12566 69.1151 -5.93209 -1.16121 38.5112 -5.05388 6.10531 -0.450359 6.47199 -89.9161 13.9312 -0.851683 0.282733 2.26055 -0.838397 0.319953 -20.2768 -0.897267 0.0136837 -0.264184 -0.897292 0.0136857 94.788 -1.25891 -109.967 -16.5332 53.248 -7.10907 -36.7471 -8.98653 -83.3878 -34.3653 5.09771 -27.2658 -84.1134 -6.34484 77.7695 -8.96082 -65.0236 -41.1292 33.2109 26.1211 -60.7201 23.8551 -13.5691 -52.9624 39.6141 0.37603 -7.96205 -11.4387 3.77965 6.56673 
152.693 15.4185 125.059 -9.614 -3.76314 -89.7278 -169.403 1.02001 96.8567 -26.2803 12.7993 -0.833616 60.2114 -0.787995 -1.7179 47.4755 -0.347114 51.7154 166.938 -5.31134 83.7295 -23.0464 -16.3071 1.13531 69.2876 -6.00499 -1.06495 36.6681 -4.39836 6.70322 -0.483152 6.47904 -89.9057 13.9175 -0.911576 0.311454 2.24682 -0.896996 0.351262 -20.2909 -0.963047 0.023049 -0.278252 -0.963035 0.0230638 94.6764 -1.06721 -110.542 -16.782 53.2556 -6.57125 -37.1144 -9.0252 -83.4847 -33.9751 5.00528 -27.2822 -83.7617 -5.93977 78.6293 -10.939 -64.6327 -42.5701 33.4838 26.3021 -61.1154 23.6863 -13.4059 -52.7691 39.9578 0.513298 -8.08759 -11.7642 3.97356 6.61112 
152.717 15.4271 125.039 -9.51519 -3.76381 -89.6456 -169.376 1.08257 96.9523 -26.0513 12.8342 -0.837511 59.7863 -1.01 -1.5743 47.9956 -0.0330795 53.0432 167.016 -5.12818 83.8426 -23.2524 -16.2092 1.16941 69.342 -6.01565 -1.16471 37.7481 -4.80526 6.61252 -0.503678 6.51607 -89.9323 13.8433 -0.965454 0.264346 2.17274 -0.952886 0.306584 -20.3653 -1.00026 -0.0380677 -0.352662 -1.00026 -0.0380557 94.7817 -0.202251 -110.914 -16.9276 53.5674 -5.81588 -36.9093 -8.92456 -83.3829 -34.3678 5.05042 -27.0842 -83.8445 -6.75349 78.7378 -9.23983 -65.2043 -42.1144 32.8527 25.9949 -60.5798 23.678 -13.4608 -52.9468 41.9258 0.79985 -7.57589 -13.5066 4.09337 5.9246 
152.609 15.4031 125.069 -9.64231 -3.79601 -89.7611 -169.428 1.15717 96.7551 -26.9175 12.7224 -0.84274 60.6524 -0.607288 -1.20135 45.4976 -3.43318 54.1458 166.873 -5.52372 83.6815 -22.6396 -16.2396 1.12355 68.9982 -5.88487 -1.03276 38.9328 -5.24785 6.45764 -0.543685 6.47728 -89.8516 13.9217 -1.00521 0.432672 2.25104 -0.985166 0.476479 -20.2872 -1.08876 0.110522 -0.274508 -1.08875 0.110536 94.442 -2.11517 -110.491 -16.544 53.2747 -7.78741 -37.1312 -9.13752 -83.2732 -34.5816 5.04531 -27.0186 -83.884 -5.57728 78.0969 -7.4094 -65.2895 -39.32 33.0413 26.0968 -60.6991 23.3605 -13.3039 -53.0449 39.3852 0.325505 -8.99773 -11.2744 4.22342 6.66602 
152.688 15.4084 125.056 -9.57107 -3.72174 -89.6674 -169.383 1.05922 96.9033 -26.283 12.7704 -0.847831 59.9778 -0.94398 -1.63893 47.1305 -2.07338 56.6076 166.989 -5.27325 83.7876 -23.0629 -16.2566 1.13752 69.246 -5.97335 -1.12159 37.9274 -4.88277 6.69378 -0.562454 6.48989 -89.8618 13.8967 -1.04744 0.417318 2.22609 -1.02806 0.462995 -20.3124 -1.12443 0.0831956 -0.29978 -1.12443 0.08318 94.256 -0.857435 -112.25 -17.8898 53.4822 -4.76321 -37.0384 -8.96346 -83.2611 -34.3883 5.05065 -27.0845 -83.7805 -5.78364 78.4979 -7.19451 -65.4158 -39.4143 32.512 26.125 -60.7159 23.8124 -13.4872 -52.7815 39.781 0.426627 -9.16077 -11.9383 4.34812 7.25141 
152.674 15.3847 125.044 -9.58138 -3.64821 -89.6605 -169.313 0.910783 96.9512 -25.9667 12.6147 -0.888313 59.926 -0.931131 -1.76541 47.1773 -2.69492 58.8643 167.062 -5.16772 83.7965 -23.297 -16.235 1.08222 69.2172 -5.87432 -0.917804 37.0071 -4.54086 6.80833 -0.558033 6.5476 -89.8944 13.781 -1.05492 0.351287 2.11042 -1.03845 0.397399 -20.4281 -1.11174 0.0179761 -0.415509 -1.11173 0.0179652 94.5421 -0.611248 -111.435 -17.1336 53.9235 -6.03774 -36.8128 -8.93187 -83.0244 -34.2625 5.0993 -27.2759 -83.3448 -6.16859 79.977 -10.533 -65.0716 -43.09 32.6971 26.2105 -60.9349 23.7578 -13.4152 -52.6595 42.006 0.795738 -8.43648 -13.6906 4.48823 6.35036 
152.674 15.3863 125.044 -9.52661 -3.71824 -89.6809 -169.354 1.07354 96.9042 -26.2274 12.7494 -0.893533 60.1789 -0.816784 -1.65509 46.601 -4.11513 60.9213 167.01 -5.25775 83.7856 -23.0085 -16.1909 1.12154 69.1486 -5.88974 -0.975392 37.6799 -4.77945 6.61469 -0.575446 6.52822 -89.8684 13.82 -1.07668 0.406946 2.14938 -1.05772 0.453948 -20.3893 -1.14921 0.064524 -0.376685 -1.1492 0.0645147 94.2715 -1.06896 -112.004 -18.1037 53.8634 -5.15389 -36.8483 -8.83481 -83.2684 -34.2939 5.0601 -27.1171 -83.6113 -6.20392 79.1963 -7.89062 -65.4946 -40.7832 32.3588 25.9444 -60.5584 23.5131 -13.3192 -52.8025 41.404 0.820042 -8.47415 -13.0389 4.56802 5.77074 
152.686 15.4131 125.025 -9.44297 -3.8126 -89.6185 -169.405 1.18819 96.9442 -26.209 12.7125 -0.82836 60.065 -0.896785 -1.7673 46.6791 -4.53331 62.4965 167.017 -5.23219 83.911 -23.0073 -16.1287 1.20758 69.4519 -6.14575 -1.2165 38.2556 -4.95569 6.1378 -0.590099 6.49755 -89.8688 13.8814 -1.10574 0.41104 2.21085 -1.08655 0.459313 -20.3281 -1.17815 0.0596587 -0.315388 -1.17814 0.0596679 94.4363 -1.54357 -110.995 -16.6255 53.4614 -7.47955 -36.8111 -9.04493 -82.9609 -34.687 5.01668 -26.7361 -83.502 -6.27606 79.5522 -8.47056 -64.8196 -41.4221 32.7408 26.0109 -60.8039 24.0262 -13.493 -52.4137 41.0052 0.70324 -8.70757 -13.0147 4.49478 6.36985 
